name C:\Users\u0101727\Documents\MyRepositories\upper-imu-dc\Results\main_mocap_tracking\Case_8\FLX01_linearAccelerations.mot
datacolumns 4
datarows 129
range 3.51000000 4.79000000
endheader 
time	radius_imu_x	radius_imu_y	radius_imu_z	
          3.51000000	         -0.63924165	         -9.67332030	          1.50651824	
          3.52000000	         -0.72357738	         -9.66027602	          1.53133360	
          3.53000000	         -0.78919377	         -9.64533623	          1.57398861	
          3.54000000	         -0.83157319	         -9.62733631	          1.63278885	
          3.55000000	         -0.85096439	         -9.60526189	          1.70503155	
          3.56000000	         -0.85348372	         -9.57979171	          1.78692734	
          3.57000000	         -0.84841175	         -9.55359475	          1.87417381	
          3.58000000	         -0.84412166	         -9.53042189	          1.96255925	
          3.59000000	         -0.84543844	         -9.51403091	          2.04822125	
          3.60000000	         -0.85326315	         -9.50700861	          2.12746756	
          3.61000000	         -0.86442674	         -9.51002718	          2.19670316	
          3.62000000	         -0.87107295	         -9.52170708	          2.25298198	
          3.63000000	         -0.86135593	         -9.53898350	          2.29474252	
          3.64000000	         -0.82244163	         -9.55822312	          2.32189786	
          3.65000000	         -0.74453035	         -9.57579558	          2.33529186	
          3.66000000	         -0.62373089	         -9.58833165	          2.33608495	
          3.67000000	         -0.46333273	         -9.59305807	          2.32512632	
          3.68000000	         -0.27452497	         -9.58831962	          2.30229121	
          3.69000000	         -0.07680699	         -9.57423772	          2.26593109	
          3.70000000	          0.10424309	         -9.55305102	          2.21317266	
          3.71000000	          0.24518072	         -9.52865400	          2.14189649	
          3.72000000	          0.33534171	         -9.50563984	          2.05340100	
          3.73000000	          0.38090151	         -9.48855013	          1.95340614	
          3.74000000	          0.40096245	         -9.48131126	          1.85087473	
          3.75000000	          0.42006102	         -9.48644437	          1.75579917	
          3.76000000	          0.46022972	         -9.50407882	          1.67696042	
          3.77000000	          0.53475210	         -9.53134756	          1.62038261	
          3.78000000	          0.64479699	         -9.56273348	          1.58870164	
          3.79000000	          0.77903122	         -9.59145565	          1.58123042	
          3.80000000	          0.91642722	         -9.61133889	          1.59457158	
          3.81000000	          1.03198741	         -9.61821342	          1.62373007	
          3.82000000	          1.10369041	         -9.61029223	          1.66356373	
          3.83000000	          1.11820640	         -9.58763601	          1.71022085	
          3.84000000	          1.07362925	         -9.55133840	          1.76203347	
          3.85000000	          0.97899524	         -9.50299494	          1.81950156	
          3.86000000	          0.85131388	         -9.44462985	          1.88442269	
          3.87000000	          0.71114867	         -9.37892575	          1.95857635	
          3.88000000	          0.57800229	         -9.30952796	          2.04254072	
          3.89000000	          0.46684664	         -9.24118260	          2.13490794	
          3.90000000	          0.38630927	         -9.17927397	          2.23219210	
          3.91000000	          0.33838503	         -9.12968701	          2.32892842	
          3.92000000	          0.31924265	         -9.09689589	          2.41866783	
          3.93000000	          0.32064859	         -9.08246052	          2.49497057	
          3.94000000	          0.33197514	         -9.08386205	          2.55223186	
          3.95000000	          0.34280596	         -9.09449889	          2.58624801	
          3.96000000	          0.34577288	         -9.10518758	          2.59443229	
          3.97000000	          0.33849519	         -9.10664080	          2.57592566	
          3.98000000	          0.32373878	         -9.09192260	          2.53154618	
          3.99000000	          0.30768707	         -9.05782602	          2.46367668	
          4.00000000	          0.29712047	         -9.00490065	          2.37618061	
          4.01000000	          0.29666339	         -8.93657363	          2.27435667	
          4.02000000	          0.30695721	         -8.85797363	          2.16487639	
          4.03000000	          0.32423095	         -8.77491604	          2.05551266	
          4.04000000	          0.34099382	         -8.69311460	          1.95451802	
          4.05000000	          0.34682111	         -8.61757006	          1.86975511	
          4.06000000	          0.32866857	         -8.55192580	          1.80789034	
          4.07000000	          0.27108078	         -8.49805369	          1.77385271	
          4.08000000	          0.15727750	         -8.45602617	          1.77048948	
          4.09000000	         -0.02810443	         -8.42472574	          1.79818198	
          4.10000000	         -0.29535312	         -8.40218187	          1.85475620	
          4.11000000	         -0.64646588	         -8.38561584	          1.93570006	
          4.12000000	         -1.07351331	         -8.37119470	          2.03472661	
          4.13000000	         -1.55859335	         -8.35408501	          2.14472507	
          4.14000000	         -2.07483481	         -8.32917978	          2.25892518	
          4.15000000	         -2.58828412	         -8.29227333	          2.37192653	
          4.16000000	         -3.06096474	         -8.24108689	          2.48034893	
          4.17000000	         -3.45532686	         -8.17560013	          2.58306275	
          4.18000000	         -3.73977932	         -8.09755142	          2.68099863	
          4.19000000	         -3.89429708	         -8.00958464	          2.77649777	
          4.20000000	         -3.91478913	         -7.91476586	          2.87222111	
          4.21000000	         -3.81573761	         -7.81658121	          2.96962997	
          4.22000000	         -3.63151050	         -7.71874526	          3.06706413	
          4.23000000	         -3.41556233	         -7.62422459	          3.15804642	
          4.24000000	         -3.23338940	         -7.53369057	          3.23164524	
          4.25000000	         -3.14533165	         -7.44445223	          3.27667712	
          4.26000000	         -3.18600977	         -7.35120260	          3.28821227	
          4.27000000	         -3.35565106	         -7.24884415	          3.27164796	
          4.28000000	         -3.62800351	         -7.13562613	          3.24146791	
          4.29000000	         -3.96465436	         -7.01419603	          3.21638421	
          4.30000000	         -4.32514211	         -6.89008873	          3.21391373	
          4.31000000	         -4.67021500	         -6.76936144	          3.24654966	
          4.32000000	         -4.96061244	         -6.65705752	          3.32029266	
          4.33000000	         -5.15562852	         -6.55664931	          3.43546335	
          4.34000000	         -5.21602042	         -6.46967728	          3.58903391	
          4.35000000	         -5.11420616	         -6.39505807	          3.77689704	
          4.36000000	         -4.84985181	         -6.32841428	          3.99420239	
          4.37000000	         -4.46245261	         -6.26222954	          4.23311931	
          4.38000000	         -4.02866293	         -6.18720292	          4.48018941	
          4.39000000	         -3.63939880	         -6.09459814	          4.71689254	
          4.40000000	         -3.37213737	         -5.97926477	          4.92376140	
          4.41000000	         -3.27945964	         -5.84251336	          5.08475242	
          4.42000000	         -3.38941542	         -5.69293536	          5.19053309	
          4.43000000	         -3.69771190	         -5.54375406	          5.24210046	
          4.44000000	         -4.15307343	         -5.40764634	          5.25287171	
          4.45000000	         -4.65924661	         -5.29198898	          5.24513383	
          4.46000000	         -5.10345060	         -5.19683902	          5.24149576	
          4.47000000	         -5.39470635	         -5.11566619	          5.25707115	
          4.48000000	         -5.48934761	         -5.03740760	          5.29668042	
          4.49000000	         -5.39283510	         -4.94878586	          5.35677535	
          4.50000000	         -5.14527527	         -4.83712244	          5.42880371	
          4.51000000	         -4.80751637	         -4.69419510	          5.50098607	
          4.52000000	         -4.45084245	         -4.51994398	          5.55930346	
          4.53000000	         -4.14057876	         -4.32336910	          5.59061211	
          4.54000000	         -3.91865856	         -4.11925571	          5.58728218	
          4.55000000	         -3.79734771	         -3.92216164	          5.55022635	
          4.56000000	         -3.75943077	         -3.74057601	          5.48959774	
          4.57000000	         -3.76289618	         -3.57384310	          5.42294006	
          4.58000000	         -3.76017032	         -3.41312557	          5.36994869	
          4.59000000	         -3.72516116	         -3.24590672	          5.34630153	
          4.60000000	         -3.66775646	         -3.06164634	          5.36053355	
          4.61000000	         -3.62637183	         -2.85559878	          5.41517527	
          4.62000000	         -3.64272806	         -2.62949622	          5.51088319	
          4.63000000	         -3.73641382	         -2.38987187	          5.65016586	
          4.64000000	         -3.90119637	         -2.14541834	          5.83669534	
          4.65000000	         -4.12095695	         -1.90457892	          6.07112044	
          4.66000000	         -4.38091302	         -1.67403674	          6.34871280	
          4.67000000	         -4.66516911	         -1.45787883	          6.66088217	
          4.68000000	         -4.95300395	         -1.25712215	          6.99785850	
          4.69000000	         -5.22291291	         -1.06958510	          7.34973828	
          4.70000000	         -5.45944252	         -0.89004784	          7.70598604	
          4.71000000	         -5.65173652	         -0.71087799	          8.05551820	
          4.72000000	         -5.78545860	         -0.52362586	          8.38800480	
          4.73000000	         -5.84127975	         -0.32187673	          8.69492441	
          4.74000000	         -5.80587858	         -0.10459708	          8.96934010	
          4.75000000	         -5.68693886	          0.12191204	          9.20506170	
          4.76000000	         -5.51704304	          0.34488473	          9.39671919	
          4.77000000	         -5.34675097	          0.54835428	          9.54040345	
          4.78000000	         -5.23438538	          0.71805913	          9.63394950	
          4.79000000	         -5.22580660	          0.84612997	          9.67852605	
